<svg xmlns="http://www.w3.org/2000/svg" xmlns:xlink="http://www.w3.org/1999/xlink" viewBox="0 0 108.22 189.34"><defs><style>.cls-1,.cls-3{fill:none;}.cls-2{clip-path:url(#clip-path);}.cls-3{stroke:#231f20;stroke-miterlimit:10;stroke-width:3px;}</style><clipPath id="clip-path" transform="translate(0 0)"><rect class="cls-1" width="108.22" height="189.34"/></clipPath></defs><title>Asset 5</title><g id="Layer_2" data-name="Layer 2"><g id="Layer_1-2" data-name="Layer 1"><g class="cls-2"><path class="cls-3" d="M56.38,3l50.15,120.08a2.46,2.46,0,0,1-3,3.31l-32.31-9.63a2.46,2.46,0,0,0-3.16,2.36v66.25a2.46,2.46,0,0,1-2.46,2.46h-23a2.46,2.46,0,0,1-2.46-2.46V119.13A2.46,2.46,0,0,0,37,116.77L4.67,126.4a2.46,2.46,0,0,1-3-3.31L51.84,3A2.46,2.46,0,0,1,56.38,3Z" transform="translate(0 0)"/></g></g></g></svg>