<svg xmlns="http://www.w3.org/2000/svg" xmlns:xlink="http://www.w3.org/1999/xlink" viewBox="0 0 367.35 165.4"><defs><style>.cls-1,.cls-3,.cls-4{fill:none;}.cls-2{clip-path:url(#clip-path);}.cls-3,.cls-4{stroke:#231f20;stroke-miterlimit:10;stroke-width:3px;}.cls-4{stroke-linecap:round;}</style><clipPath id="clip-path" transform="translate(0 0)"><rect class="cls-1" width="367.35" height="165.4"/></clipPath></defs><title>Asset 9</title><g id="Layer_2" data-name="Layer 2"><g id="Layer_1-2" data-name="Layer 1"><g class="cls-2"><path class="cls-3" d="M16.11,61.66a3.63,3.63,0,1,1-3.63-3.72A3.67,3.67,0,0,1,16.11,61.66Zm342.46,0a3.64,3.64,0,1,1-3.63-3.72A3.67,3.67,0,0,1,358.57,61.66Zm-174.9-6.8h7.82c2,0,3.9-1.21,5.94-3.24C209.35,22.2,237.68,1.5,270.73,1.5c29.75,0,55.67,16.77,69.25,41.58,7.49,5.15,15.61,8.74,25.87,8.74V72.25s-13.17-.59-16.17,2.54c.24,2.61.37,5.24.37,7.91,0,44.85-35.51,81.2-79.32,81.2s-79.32-36.35-79.32-81.2q0-3.51.29-7a9.22,9.22,0,0,0-8-5.51M207.34,82.7c0,35.84,28.38,64.89,63.39,64.89s63.39-29,63.39-64.89-28.38-64.89-63.39-64.89S207.34,46.86,207.34,82.7ZM183.67,54.86h-7.82c-2,0-3.89-1.21-5.94-3.24C158,22.2,129.67,1.5,96.61,1.5c-29.75,0-55.67,16.77-69.24,41.58-7.5,5.15-15.62,8.74-25.87,8.74V72.25s13.17-.59,16.17,2.54c-.25,2.61-.38,5.24-.38,7.91,0,44.85,35.52,81.2,79.32,81.2s79.33-36.35,79.33-81.2c0-2.34-.11-4.66-.3-7a9.24,9.24,0,0,1,8-5.51M160,82.7c0,35.84-28.38,64.89-63.39,64.89s-63.38-29-63.38-64.89S61.61,17.81,96.61,17.81,160,46.86,160,82.7Z" transform="translate(0 0)"/><path class="cls-4" d="M271.93,26.58a53,53,0,0,1,6.33.39m4.94.87a50.42,50.42,0,0,1,19.17,8.94" transform="translate(0 0)"/></g></g></g></svg>