<svg xmlns="http://www.w3.org/2000/svg" xmlns:xlink="http://www.w3.org/1999/xlink" viewBox="0 0 108.36 323.41"><defs><style>.cls-1,.cls-3{fill:none;}.cls-2{clip-path:url(#clip-path);}.cls-3{stroke:#231f20;stroke-miterlimit:10;stroke-width:3px;}</style><clipPath id="clip-path"><rect class="cls-1" width="108.36" height="323.41"/></clipPath></defs><title>Asset 4</title><g id="Layer_2" data-name="Layer 2"><g id="Layer_1-2" data-name="Layer 1"><g class="cls-2"><path class="cls-3" d="M1.5,83.36V126.1a10.2,10.2,0,0,0,10.16,10.23h1.42A10.2,10.2,0,0,0,23.24,126.1V89A10.19,10.19,0,0,1,33.39,78.77h1.43A10.19,10.19,0,0,1,45,89v22.24a9,9,0,0,0,9,9h3.75a6,6,0,0,1,6,6v24.07a10.2,10.2,0,0,0,10.16,10.23h1.42a10.2,10.2,0,0,0,10.16-10.23V126.28a6,6,0,0,1,6-6h6.53a9,9,0,0,0,9-9v-36M66.41,215V310.4A11.47,11.47,0,0,1,55,321.91h-1.6A11.47,11.47,0,0,1,41.94,310.4V215M106.86,54.57A52.88,52.88,0,0,0,53.78,1.5C24.73,1.72,1.5,26,1.5,55.24v154.9A4.8,4.8,0,0,0,6.28,215h95.8a4.81,4.81,0,0,0,4.78-4.82Z"/></g></g></g></svg>