<svg xmlns="http://www.w3.org/2000/svg" xmlns:xlink="http://www.w3.org/1999/xlink" viewBox="0 0 399.29 97.89"><defs><style>.cls-1,.cls-3{fill:none;}.cls-2{clip-path:url(#clip-path);}.cls-3{stroke:#231f20;stroke-miterlimit:10;stroke-width:3px;}</style><clipPath id="clip-path" transform="translate(0 0)"><rect class="cls-1" width="399.29" height="97.89"/></clipPath></defs><title>Asset 13</title><g id="Layer_2" data-name="Layer 2"><g id="Layer_1-2" data-name="Layer 1"><g class="cls-2"><path class="cls-3" d="M342.85,76.74A19.49,19.49,0,1,1,323.37,57.1,19.57,19.57,0,0,1,342.85,76.74Zm-13.06-.4a6.42,6.42,0,1,1-6.42-6.47A6.44,6.44,0,0,1,329.79,76.34Zm-234.07,0a6.42,6.42,0,1,1-6.42-6.47A6.44,6.44,0,0,1,95.72,76.34Zm216.2,15.88a19.68,19.68,0,0,1-12.69-34.55M73.44,89.51A19.67,19.67,0,0,1,60.74,55m48.05,21.77A19.49,19.49,0,1,1,89.3,57.1,19.57,19.57,0,0,1,108.79,76.74ZM393.9,15.9c6.92,6.92,4.47,16.08-6.24,26.79s-33.92,15.05-33.92,15.05S111.21,57,96.93,57C88.44,57,1.5,56.39,1.5,34.32V28.63M327.86,11.56H90S1.5,7.1,1.5,28.63C1.5,50.7,87.73,50,96.15,50c14.17,0,254.73.75,254.73.75s23-3,33.64-13.7,13.06-18.52,6.2-25.44S372.13.41,367.7,1.75,350.88,11.56,327.86,11.56Z" transform="translate(0 0)"/></g></g></g></svg>