<svg xmlns="http://www.w3.org/2000/svg" xmlns:xlink="http://www.w3.org/1999/xlink" viewBox="0 0 143.97 360.79"><defs><style>.cls-1,.cls-3,.cls-4{fill:none;}.cls-2{clip-path:url(#clip-path);}.cls-3,.cls-4{stroke:#231f20;stroke-miterlimit:10;stroke-width:3px;}.cls-4{stroke-linecap:round;}</style><clipPath id="clip-path" transform="translate(0)"><rect class="cls-1" width="143.97" height="360.79"/></clipPath></defs><title>Asset 2</title><g id="Layer_2" data-name="Layer 2"><g id="Layer_1-2" data-name="Layer 1"><g class="cls-2"><path class="cls-3" d="M91,32.64H81.85M91,52.28H81.85m8.4-18.58a5.9,5.9,0,1,1,5.89,5.65A5.78,5.78,0,0,1,90.25,33.7Zm-.8,18.58a5.9,5.9,0,1,1,5.89,5.64A5.78,5.78,0,0,1,89.45,52.28ZM56,53.33h9.16M56,33.7h9.16m-8.4,18.58a5.9,5.9,0,1,1-5.89-5.65A5.76,5.76,0,0,1,56.76,52.28Zm.8-18.58a5.9,5.9,0,1,1-5.89-5.65A5.77,5.77,0,0,1,57.56,33.7ZM64.15,65H82.54m6.64-44.7a7.93,7.93,0,0,0-8-7.75,7.44,7.44,0,0,0,.77-3.25,8.1,8.1,0,0,0-16.18,0,7.54,7.54,0,0,0,.81,3.33,7.17,7.17,0,0,0-.81-.08,7.92,7.92,0,0,0-8.09,7.75A7.93,7.93,0,0,0,65.73,28L66,28a6.37,6.37,0,0,0-.12,1.07L59.29,228.35a7.39,7.39,0,0,0,7.54,7.23H79a7.39,7.39,0,0,0,7.54-7.23L81.62,29.07A6.61,6.61,0,0,0,81.5,28,7.9,7.9,0,0,0,89.18,20.26Z" transform="translate(0)"/><path class="cls-4" d="M91.22,247.41a4.61,4.61,0,0,1,9.21,0l0,30.82a7.86,7.86,0,0,0,15.69,0" transform="translate(0)"/><path class="cls-4" d="M3.93,306.15c.7,0,1.41-.07,2.13-.07,17.85,0,32.31,14.15,32.31,31.59a31,31,0,0,1-2.25,11.63M61.37,140.51C37.29,144.35,20,163.89,20,187.42a44.49,44.49,0,0,0,2.78,15.45v15.34a1.56,1.56,0,0,0,1.61,1.51h9.2l1.1,1.08s6.37,7.6-7,20.95c-.14.14-11.45.43-11.45.43a1.56,1.56,0,0,0-1.61,1.5v11.91a62.32,62.32,0,0,0-13.06,38c0,36.26,31.56,65.66,70.49,65.66s70.48-29.4,70.48-65.66a62.12,62.12,0,0,0-11-35.17V243.68a1.57,1.57,0,0,0-1.62-1.5s-11.31-.29-11.45-.43c-13.4-13.35-7-20.95-7-20.95l1.11-1.08h9.19a1.57,1.57,0,0,0,1.62-1.51V202.87a44.71,44.71,0,0,0,2.77-15.45c0-23.35-17-42.77-40.85-46.82m-32.57,152v11.83a18.84,18.84,0,0,0,13,17.62v36.48H79.9V321.77a18.79,18.79,0,0,0,12.18-17.34V292.6Zm35.44-22.29H56.65v-9H88.11ZM53.7,248.09a4.33,4.33,0,0,0-8.66,0l0,29.8a7.38,7.38,0,0,1-14.76,0" transform="translate(0)"/></g></g></g></svg>