<svg xmlns="http://www.w3.org/2000/svg" xmlns:xlink="http://www.w3.org/1999/xlink" viewBox="0 0 329.87 275.54"><defs><style>.cls-1,.cls-3{fill:none;}.cls-2{clip-path:url(#clip-path);}.cls-3{stroke:#231f20;stroke-miterlimit:10;stroke-width:3px;}</style><clipPath id="clip-path" transform="translate(0 0)"><rect class="cls-1" width="329.87" height="275.54"/></clipPath></defs><title>Asset 3</title><g id="Layer_2" data-name="Layer 2"><g id="Layer_1-2" data-name="Layer 1"><g class="cls-2"><path class="cls-3" d="M328.37,118.65V248.46A7.18,7.18,0,0,1,317,254.25l-48.34-32.71a14.55,14.55,0,0,1-6-11.75V158.88a13,13,0,0,1,5.3-10.45l49.81-35.16A6.68,6.68,0,0,1,328.37,118.65ZM187.66,177.52a8.74,8.74,0,1,1-8.74-8.73A8.74,8.74,0,0,1,187.66,177.52Zm24.9,0a8.74,8.74,0,1,1-8.73-8.73A8.73,8.73,0,0,1,212.56,177.52ZM51.36,201.1H30.78a5,5,0,1,1,0-10H51.36a5,5,0,1,1,0,10Zm0-19.7H30.78a5,5,0,1,1,0-10H51.36a5,5,0,1,1,0,10Zm155.57-24.64H32.79a5,5,0,1,1,0-10H206.93a5,5,0,1,1,0,10ZM133.27,274H107a9.29,9.29,0,0,1-9.29-9.28v-29.3a9.29,9.29,0,0,1,9.29-9.29h26.32a9.29,9.29,0,0,1,9.29,9.29v29.3A9.29,9.29,0,0,1,133.27,274ZM35.74,122H25a13.7,13.7,0,0,0-13.7,13.7v96.91A13.7,13.7,0,0,0,25,246.35H90.79v-17.5a9.12,9.12,0,0,1,9.13-9.12h39.75a9.12,9.12,0,0,1,9.12,9.12v17.5h65.79a13.7,13.7,0,0,0,13.71-13.7V135.74A13.7,13.7,0,0,0,214.58,122h-11m50,101.13H237.85V145h15.77ZM187.19,66.94a15.6,15.6,0,1,1-15.6-15.59A15.6,15.6,0,0,1,187.19,66.94Zm-104.79,0A15.6,15.6,0,1,1,66.8,51.35,15.59,15.59,0,0,1,82.4,66.94ZM173.88,1.5a63.94,63.94,0,0,0-54.21,30,63.93,63.93,0,1,0,0,67.92A64,64,0,1,0,173.88,1.5Z" transform="translate(0 0)"/></g><line class="cls-3" x1="316.61" y1="113.97" x2="316.61" y2="252.97"/></g></g></svg>