<svg xmlns="http://www.w3.org/2000/svg" xmlns:xlink="http://www.w3.org/1999/xlink" viewBox="0 0 250.04 409.11"><defs><style>.cls-1,.cls-3,.cls-4{fill:none;}.cls-2{clip-path:url(#clip-path);}.cls-3,.cls-4{stroke:#231f20;stroke-miterlimit:10;stroke-width:3px;}.cls-4{stroke-linecap:round;}</style><clipPath id="clip-path"><rect class="cls-1" width="250.04" height="409.11"/></clipPath></defs><title>Asset 1</title><g id="Layer_2" data-name="Layer 2"><g id="Layer_1-2" data-name="Layer 1"><g class="cls-2"><path class="cls-3" d="M244.38,37.87l-11.93-10.4a15.05,15.05,0,0,0,.66-4.85c-1.86-33.55-56.5-27.95-65.65,22.7-8.31,46,46.37,89.86,42.36,133.85-2,21.39-9.33-49.7-60-49.7-42.87,0-73.56,12-144.35,83.58-9.95,10.07,1,15.93,7.8,12.2s31.85-11.52,48.11-1.69S95,236.09,103.76,237.11l1.75.19a30,30,0,0,0,46.05,2c4.65.08,9.71.14,15.22.19,37.61.34,59.66-12.72,69.13-35.58,22-53.2-89.37-151.36-38.34-174.67A18.37,18.37,0,0,0,223.13,39c2.18,2.15,5.4,5.29,8,7.72C235.57,50.74,240,67,243.36,67s2.71-6.78,4.74-15.93S244.38,37.87,244.38,37.87Z"/><path class="cls-4" d="M211.19,15.19a4.72,4.72,0,0,1,6.08-2.48,4.47,4.47,0,0,1,2.55,5.89"/><path class="cls-3" d="M137.39,249.24l40.5,159.2m-52.83-158.9-40.5,159.2"/></g></g></g></svg>