<svg xmlns="http://www.w3.org/2000/svg" xmlns:xlink="http://www.w3.org/1999/xlink" viewBox="0 0 197 322.96"><defs><style>.cls-1,.cls-3{fill:none;}.cls-2{clip-path:url(#clip-path);}.cls-3{stroke:#231f20;stroke-miterlimit:10;stroke-width:3px;}</style><clipPath id="clip-path" transform="translate(0 0)"><rect class="cls-1" width="197" height="322.96"/></clipPath></defs><title>Asset 7</title><g id="Layer_2" data-name="Layer 2"><g id="Layer_1-2" data-name="Layer 1"><g class="cls-2"><rect class="cls-3" x="58.52" y="1.5" width="35.03" height="12.48"/></g><rect class="cls-3" x="57.75" y="191.45" width="36.57" height="9.43"/><rect class="cls-3" x="63.35" y="200.88" width="25.37" height="9.43"/><rect class="cls-3" x="39" y="50.08" width="74.07" height="24.57"/><rect class="cls-3" x="43.43" y="167.38" width="65.2" height="24.06"/><rect class="cls-3" x="62.51" y="13.98" width="27.05" height="35.79"/><g class="cls-2"><path class="cls-3" d="M94.7,102.29A18.31,18.31,0,1,1,76.39,84,18.3,18.3,0,0,1,94.7,102.29Z" transform="translate(0 0)"/><path class="cls-3" d="M144.38,232.84a12.43,12.43,0,0,0-20.68,9l-1.36,49.1H1.5v30.52h194V290.94Z" transform="translate(0 0)"/><path class="cls-3" d="M146.76,249.7a8.27,8.27,0,1,1-8.27-8.25A8.26,8.26,0,0,1,146.76,249.7Z" transform="translate(0 0)"/><path class="cls-3" d="M84,102.22a7.68,7.68,0,1,1-7.67-7.65A7.66,7.66,0,0,1,84,102.22Z" transform="translate(0 0)"/><path class="cls-3" d="M155.06,244.2A88.12,88.12,0,0,0,102.68,90.1V74.61H49.49v92.62h53.19v-52a63.09,63.09,0,0,1,6.57,124.67H23.46v26.31h97.9" transform="translate(0 0)"/></g></g></g></svg>