<svg xmlns="http://www.w3.org/2000/svg" xmlns:xlink="http://www.w3.org/1999/xlink" viewBox="0 0 203.87 325.31"><defs><style>.cls-1,.cls-3{fill:none;}.cls-2{clip-path:url(#clip-path);}.cls-3{stroke:#231f20;stroke-width:3px;}</style><clipPath id="clip-path"><rect class="cls-1" width="203.87" height="325.31"/></clipPath></defs><title>Asset 11</title><g id="Layer_2" data-name="Layer 2"><g id="Layer_1-2" data-name="Layer 1"><g class="cls-2"><path class="cls-3" d="M175.15,236.7a11.49,11.49,0,1,1-11.49-11.43A11.47,11.47,0,0,1,175.15,236.7ZM101,34.19A11.87,11.87,0,0,0,89.12,46v6.66A1.79,1.79,0,0,0,91,54.52h20.12a1.79,1.79,0,0,0,1.83-1.83V46A11.86,11.86,0,0,0,101,34.19ZM72.54,142.67V263.28m57.84-120.61V263.28M117.08,21.73H85.78m99.27,257.86-48-.68m-70.23,0H17.63m165.5-23.7H147.94m35.19,9.37H147.94m-93.28-9.37H19.47m35.19,9.37H19.47m110.91-101.2H71.65m58.73,100.16H71.65m58.73-50.08H71.65m58.73-100.17H71.65M131.3,63.21H72.57m29.37.59V263.21M162.43,206c-13.1-12.36-21.43-35.83-26.13-53.41-.89-3.32-3.19-5.59-4.56-6.14a2.46,2.46,0,0,1-1.36-2.37V74.52a69,69,0,0,0-3.19-20.71l-13.71-43.5c-3.7-11.75-20.4-11.75-24.1,0L75.12,55.55A57,57,0,0,0,72.48,72.7v71.88s0,1.83-1.14,2.44a9.6,9.6,0,0,0-3.77,5.6c-4.7,17.58-13,41-26.13,53.41C20.52,225.76,2.65,232.31,1.51,267.89a10,10,0,0,0,8.63,10.19c2.5.36,5.44.85,7.06,1.18a2.13,2.13,0,0,1,1.62,2.16v9.18a7.3,7.3,0,0,0,7.31,7.28h33.6a7.12,7.12,0,0,0,5.74-2.68s.52-.85.61-.83l.14,0s.09,0,.09,1v15.43a1.79,1.79,0,0,0,1.83,1.83H73v3.84a7.29,7.29,0,0,0,7.31,7.28H94.12a7.29,7.29,0,0,0,7.31-7.28,7.29,7.29,0,0,0,7.3,7.28h13.83a7.29,7.29,0,0,0,7.31-7.28v-2.84a1,1,0,0,1,1-1h3.85a1.79,1.79,0,0,0,1.83-1.83V295.91s0-1.83.24-1.73a9,9,0,0,0,1,.35s.26.06.91,1.05a7.2,7.2,0,0,0,5.45,2.3h33.6a7.29,7.29,0,0,0,7.31-7.28v-9.18a2.21,2.21,0,0,1,1.62-2.16c1.62-.33,4.57-.82,7.07-1.18a10,10,0,0,0,8.63-10.19C201.22,232.31,183.35,225.76,162.43,206ZM124.8,263.8H79.08c-12.26,0-12.26,8-12.26,8v39.37A1.79,1.79,0,0,0,68.65,313h66.57a1.79,1.79,0,0,0,1.83-1.83V271.79S137.05,263.8,124.8,263.8Z"/></g></g></g></svg>