<svg xmlns="http://www.w3.org/2000/svg" xmlns:xlink="http://www.w3.org/1999/xlink" viewBox="0 0 143.97 368.57"><defs><style>.cls-1,.cls-3{fill:none;}.cls-2{clip-path:url(#clip-path);}.cls-3{stroke:#231f20;stroke-miterlimit:10;stroke-width:3px;}</style><clipPath id="clip-path"><rect class="cls-1" width="143.97" height="368.57"/></clipPath></defs><title>Asset 10</title><g id="Layer_2" data-name="Layer 2"><g id="Layer_1-2" data-name="Layer 1"><g class="cls-2"><path class="cls-3" d="M127.94,367.07H16V354.73H127.94Zm-9.53-19.44H25.56V335.28h92.85ZM129.69,20a6.88,6.88,0,1,1-6.87-6.8A6.84,6.84,0,0,1,129.69,20ZM27.75,20a6.88,6.88,0,1,1-6.87-6.8A6.84,6.84,0,0,1,27.75,20ZM123.12,1.5H20.85A19.24,19.24,0,0,0,1.5,20.64,19.24,19.24,0,0,0,20.85,39.77,19.25,19.25,0,0,0,40.2,20.64a18.76,18.76,0,0,0-.68-4.94h64.93A19.36,19.36,0,1,0,123.12,1.5ZM92.59,26.91v300m-10.3-300v300M72,26.91v300m-10.31-300v300m-10.3-300v300m51.51,0H41.08v-300h61.81Z"/></g></g></g></svg>