<svg xmlns="http://www.w3.org/2000/svg" viewBox="0 0 293.37 293.37"><defs><style>.cls-1{fill:#231f20;}.cls-2,.cls-3{fill:none;stroke:#231f20;stroke-width:3px;}.cls-3{stroke-linecap:round;}</style></defs><title>Asset 6</title><g id="Layer_2" data-name="Layer 2"><g id="Layer_1-2" data-name="Layer 1"><path class="cls-1" d="M85.29,130h-6.5v-2.32h1.94V113H78.79v-2.32h6.5V113H83.35v14.74h1.94Z"/><path class="cls-1" d="M103.27,130h-3l-9.9-15.66V130H87.88V110.63H91l9.74,15.66V110.63h2.53Z"/><path class="cls-1" d="M121.74,124.69a5.08,5.08,0,0,1-2,4.3,9.34,9.34,0,0,1-5.71,1.54,7.91,7.91,0,0,1-6-2.19,5.73,5.73,0,0,1-1-1.38,7.25,7.25,0,0,1-.64-3.21h2.45c.15,3,2,4.53,5.48,4.53,3.3,0,4.94-1.14,4.94-3.42a2.54,2.54,0,0,0-.62-1.81,7.51,7.51,0,0,0-3.51-1.46l-4-.92Q107,119.73,107,116a5.38,5.38,0,0,1,1.87-4.34,7.65,7.65,0,0,1,5.1-1.58q5,0,6.59,3.24a8.52,8.52,0,0,1,.67,3h-2.45q-.39-3.94-4.89-4a5.06,5.06,0,0,0-3.2.9,2.91,2.91,0,0,0-1.15,2.45c0,1.33.77,2.17,2.3,2.51l5.53,1.27Q121.73,120.49,121.74,124.69Z"/><path class="cls-1" d="M139.43,116.16a5.54,5.54,0,0,1-1.58,4.12,5.73,5.73,0,0,1-4.17,1.55h-6.11V130H125V110.63h8.73a5.75,5.75,0,0,1,4.18,1.51A5.35,5.35,0,0,1,139.43,116.16Zm-2.7,0q0-3.24-3.84-3.24h-5.32v6.72h5.21Q136.73,119.59,136.73,116.11Z"/><path class="cls-1" d="M147.39,130h-6.5v-2.32h1.94V113h-1.94v-2.32h6.5V113h-1.94v14.74h1.94Z"/><path class="cls-1" d="M166.24,130H163a8.32,8.32,0,0,1-.18-.94,24,24,0,0,1-.27-3.59,12.68,12.68,0,0,0-.11-1.52,3,3,0,0,0-.65-1.37,3.43,3.43,0,0,0-2.7-.89h-6.35V130h-2.61V110.63h9q6.38,0,6.37,5.26a4.91,4.91,0,0,1-1,3.21,7,7,0,0,1-1.7,1.38,3.76,3.76,0,0,1,1.76,1.31,4.94,4.94,0,0,1,.56,2.34l.17,3.51a3.58,3.58,0,0,0,.21,1.25,1.8,1.8,0,0,0,.76.69Zm-3.46-13.93q0-3.21-3.48-3.21h-6.54v6.59h6.08Q162.79,119.46,162.78,116.08Z"/><path class="cls-1" d="M174.45,130h-6.51v-2.32h1.94V113h-1.94v-2.32h6.51V113H172.5v14.74h1.95Z"/><path class="cls-1" d="M192.43,130h-3l-9.89-15.66V130H177V110.63h3.12l9.73,15.66V110.63h2.54Z"/><path class="cls-1" d="M213.24,130h-1.7l-.62-2.51a8.1,8.1,0,0,1-2.13,1.89,8.46,8.46,0,0,1-4.4,1.14,8.09,8.09,0,0,1-6.24-2.62,10.34,10.34,0,0,1-2.62-7.32A11.19,11.19,0,0,1,198,113a8.37,8.37,0,0,1,6.62-2.89,9.75,9.75,0,0,1,3.67.71,7.26,7.26,0,0,1,3,2.13,6.23,6.23,0,0,1,.9,1.35,7.89,7.89,0,0,1,.67,2.21h-2.54A6.1,6.1,0,0,0,209,114a6.51,6.51,0,0,0-9,.65,9.11,9.11,0,0,0-1.74,5.88,8.81,8.81,0,0,0,1.68,5.79,5.84,5.84,0,0,0,4.77,2,6.11,6.11,0,0,0,4.35-1.56,5.15,5.15,0,0,0,1.31-1.92,8.62,8.62,0,0,0,.45-2.91h-6v-2.25h8.5Z"/><path class="cls-1" d="M104.41,152.69a5.08,5.08,0,0,1-2,4.3,9.34,9.34,0,0,1-5.71,1.53c-2.66,0-4.68-.72-6-2.18a5.94,5.94,0,0,1-1-1.38,7.24,7.24,0,0,1-.65-3.21h2.46q.21,4.53,5.48,4.53,4.93,0,4.94-3.43a2.57,2.57,0,0,0-.62-1.8,7.51,7.51,0,0,0-3.51-1.46l-4-.92q-4.12-.94-4.13-4.64a5.39,5.39,0,0,1,1.86-4.34,7.67,7.67,0,0,1,5.11-1.58q5,0,6.58,3.24a8.27,8.27,0,0,1,.68,3h-2.46q-.37-3.95-4.89-4a5.11,5.11,0,0,0-3.19.89,3,3,0,0,0-1.15,2.46c0,1.33.76,2.17,2.29,2.51l5.54,1.27C102.94,148.15,104.41,149.88,104.41,152.69Z"/><path class="cls-1" d="M122.61,151.21a7.54,7.54,0,0,1-1.19,4.18,5.92,5.92,0,0,1-2.19,2.14,9.64,9.64,0,0,1-4.48,1,7.55,7.55,0,0,1-5.39-1.89,6.63,6.63,0,0,1-2-5.07V138.63H110v12.2a5.58,5.58,0,0,0,1.3,4,4.78,4.78,0,0,0,3.7,1.39,4.85,4.85,0,0,0,3.71-1.39,5.5,5.5,0,0,0,1.31-3.93V138.63h2.62Z"/><path class="cls-1" d="M145,158H142.5V141.76L137.05,158h-2.59L129,141.76l-.05.29.05,4.51V158h-2.53V138.63h3.75L135.75,155h.06l5.51-16.38H145Z"/><path class="cls-1" d="M167.43,158h-2.54V141.76L159.43,158h-2.59l-5.45-16.25-.06.29.06,4.51V158h-2.54V138.63h3.75L158.14,155h.05l5.51-16.38h3.73Z"/><path class="cls-1" d="M185.73,158H171.42V138.63h14.12V141H174v5.94h10.61v2.32H174v6.48h11.69Z"/><path class="cls-1" d="M204.77,158h-3.22c-.07-.27-.13-.58-.19-.94a27.11,27.11,0,0,1-.27-3.59A11.26,11.26,0,0,0,201,152a3,3,0,0,0-.65-1.37,3.43,3.43,0,0,0-2.7-.89h-6.35V158h-2.62V138.63h9q6.38,0,6.37,5.26a4.93,4.93,0,0,1-1,3.21,7.22,7.22,0,0,1-1.7,1.38,3.76,3.76,0,0,1,1.76,1.31,4.94,4.94,0,0,1,.56,2.34l.16,3.51a3.77,3.77,0,0,0,.22,1.25,1.8,1.8,0,0,0,.76.69Zm-3.46-13.93q0-3.21-3.48-3.21h-6.54v6.58h6.08Q201.32,147.45,201.31,144.08Z"/><path class="cls-1" d="M85.89,172.16a5.54,5.54,0,0,1-1.58,4.12,5.73,5.73,0,0,1-4.17,1.55H74V186H71.41V166.62h8.73a5.76,5.76,0,0,1,4.18,1.52A5.35,5.35,0,0,1,85.89,172.16Zm-2.7,0q0-3.24-3.84-3.24H74v6.72h5.21Q83.19,175.59,83.19,172.11Z"/><path class="cls-1" d="M104.71,186h-3.22c-.07-.27-.13-.58-.19-.94a27.14,27.14,0,0,1-.27-3.6,13.21,13.21,0,0,0-.1-1.51,3,3,0,0,0-.65-1.37,3.44,3.44,0,0,0-2.7-.9H91.23V186H88.61V166.62h9q6.38,0,6.37,5.27a4.93,4.93,0,0,1-1,3.21,7.47,7.47,0,0,1-1.7,1.38,3.73,3.73,0,0,1,1.75,1.31,4.8,4.8,0,0,1,.57,2.33l.16,3.51a3.85,3.85,0,0,0,.22,1.26,1.86,1.86,0,0,0,.76.69Zm-3.46-13.93q0-3.21-3.48-3.21H91.23v6.58h6.08C99.93,175.45,101.25,174.33,101.25,172.08Z"/><path class="cls-1" d="M125.28,176.16a10.73,10.73,0,0,1-2.58,7.54,9.79,9.79,0,0,1-13.73,0,11.87,11.87,0,0,1,0-14.8,9.86,9.86,0,0,1,13.15-.57,9.56,9.56,0,0,1,2.31,3.44A11.45,11.45,0,0,1,125.28,176.16Zm-2.7.18a8.56,8.56,0,0,0-1.85-5.73,6.62,6.62,0,0,0-9.8,0,9.78,9.78,0,0,0,0,11.45,6.64,6.64,0,0,0,9.8,0A8.48,8.48,0,0,0,122.58,176.34Z"/><path class="cls-1" d="M145.12,186h-1.7l-.62-2.51a8.1,8.1,0,0,1-2.13,1.89,8.46,8.46,0,0,1-4.4,1.13A8.06,8.06,0,0,1,130,183.9a10.32,10.32,0,0,1-2.62-7.31,11.19,11.19,0,0,1,2.51-7.59,8.34,8.34,0,0,1,6.62-2.89,9.94,9.94,0,0,1,3.67.7,7.36,7.36,0,0,1,3,2.14,6.23,6.23,0,0,1,.9,1.35,7.89,7.89,0,0,1,.67,2.21h-2.54a6,6,0,0,0-1.4-2.56,6.49,6.49,0,0,0-9,.64,9.14,9.14,0,0,0-1.74,5.89,8.81,8.81,0,0,0,1.68,5.79,5.84,5.84,0,0,0,4.77,2,6.11,6.11,0,0,0,4.35-1.56,5.15,5.15,0,0,0,1.31-1.92,8.64,8.64,0,0,0,.45-2.92h-6v-2.24h8.5Z"/><path class="cls-1" d="M165.13,186h-3.21a6.47,6.47,0,0,1-.19-.94,27.14,27.14,0,0,1-.27-3.6,12.65,12.65,0,0,0-.11-1.51,2.87,2.87,0,0,0-.65-1.37,3.43,3.43,0,0,0-2.7-.9h-6.34V186H149V166.62h9q6.38,0,6.37,5.27a5,5,0,0,1-1,3.21,7.71,7.71,0,0,1-1.7,1.38,3.73,3.73,0,0,1,1.75,1.31,5,5,0,0,1,.57,2.33l.16,3.51a3.92,3.92,0,0,0,.21,1.26,1.86,1.86,0,0,0,.76.69Zm-3.45-13.93c0-2.14-1.17-3.21-3.49-3.21h-6.53v6.58h6.07Q161.68,175.45,161.68,172.08Z"/><path class="cls-1" d="M184,186h-2.86l-1.92-5.64h-7.78l-2,5.64h-2.7L174,166.62h3Zm-5.72-8-2.87-8.54h-.05l-3.1,8.54Z"/><path class="cls-1" d="M204.71,186h-2.54V169.76L196.72,186h-2.59l-5.46-16.25,0,.29,0,4.51V186h-2.53V166.62h3.75L195.42,183h.06L201,166.62h3.72Z"/><path class="cls-1" d="M223.13,180.69a5.05,5.05,0,0,1-2,4.29,9.29,9.29,0,0,1-5.71,1.54c-2.67,0-4.68-.73-6-2.18a5.65,5.65,0,0,1-1-1.38,7.24,7.24,0,0,1-.65-3.21h2.46q.21,4.53,5.48,4.53,4.93,0,4.94-3.43A2.6,2.6,0,0,0,220,179a7.63,7.63,0,0,0-3.51-1.45l-4-.92c-2.76-.63-4.13-2.18-4.13-4.65a5.38,5.38,0,0,1,1.86-4.33,7.65,7.65,0,0,1,5.1-1.58q5,0,6.59,3.24a8.48,8.48,0,0,1,.68,2.94h-2.46c-.25-2.62-1.88-3.94-4.89-3.94a5.14,5.14,0,0,0-3.2.89,3,3,0,0,0-1.15,2.46c0,1.33.77,2.17,2.3,2.51l5.53,1.27C221.66,176.15,223.13,177.88,223.13,180.69Z"/><circle class="cls-2" cx="146.68" cy="146.68" r="145.17" transform="translate(-60.76 146.68) rotate(-45)"/><path class="cls-2" d="M88.21,237A108.84,108.84,0,1,0,54.89,86.74,108.83,108.83,0,0,0,88.21,237Z"/><path class="cls-1" d="M213.33,39.78c-.13.17-.31.39-.56.67a9.57,9.57,0,0,1-3.64,2.83,8.14,8.14,0,0,1-6.93-.59,8,8,0,0,1-4.42-5.41,11.18,11.18,0,0,1,1.33-7.74A10.92,10.92,0,0,1,204.77,24a8.45,8.45,0,0,1,7.2.59,8.32,8.32,0,0,1,4,3.95,7.53,7.53,0,0,1,.14,5.41l-2.27-1.18a5.75,5.75,0,0,0,0-2.87,5.5,5.5,0,0,0-3-3.22,5.71,5.71,0,0,0-5.18-.28,9.06,9.06,0,0,0-4.22,4.42,9.17,9.17,0,0,0-1.23,5.94,5.65,5.65,0,0,0,3.2,4,5.18,5.18,0,0,0,4.89.14,9.33,9.33,0,0,0,2.68-2.26Z"/><path class="cls-1" d="M228.47,51.59a7.62,7.62,0,0,1-3.53,2.61,5.89,5.89,0,0,1-3.05.35,9.55,9.55,0,0,1-4.2-2,7.58,7.58,0,0,1-3.13-4.82,6.69,6.69,0,0,1,1.51-5.29l8-10.32,2.09,1.61-7.51,9.74a5.69,5.69,0,0,0-1.41,4,4.81,4.81,0,0,0,2.09,3.38,4.89,4.89,0,0,0,3.82,1.18,5.61,5.61,0,0,0,3.47-2.33l7.54-9.79,2.09,1.61Z"/><path class="cls-1" d="M238.33,71.29l-2.24-2.35c.15-.24.34-.5.56-.79a25.91,25.91,0,0,1,2.43-2.7,11.16,11.16,0,0,0,1-1.13,3,3,0,0,0,.55-1.43,3.5,3.5,0,0,0-1.23-2.59L235,55.68,229,61.46l-1.82-1.91,14.14-13.49,6.24,6.54q4.43,4.65.59,8.31a5,5,0,0,1-3,1.51,7.49,7.49,0,0,1-2.19-.28,3.69,3.69,0,0,1,.27,2.19,4.9,4.9,0,0,1-1.31,2l-2.44,2.57a3.61,3.61,0,0,0-.77,1,1.89,1.89,0,0,0,0,1Zm7.75-12.22q2.35-2.24-.08-4.77l-4.54-4.77-4.81,4.59,4.23,4.43C242.71,60.46,244.44,60.64,246.08,59.07Z"/><path class="cls-1" d="M249.09,86.74l-1.66-2.36L251,79.53l-4.5-6.42-5.83,1.6-1.56-2.23,20.21-5.21L261,69.72Zm3.25-9.34,5.38-7.3,0,0-8.83,2.38Z"/><path class="cls-1" d="M270.39,91.52l-3-5.91-15.38,7.72L250.87,91l15.37-7.72-3-5.91,2.09-1,7.12,14.18Z"/><path class="cls-1" d="M260.37,114.8l-4.55-13.69L274.36,95l4.49,13.51-2.22.73-3.66-11-5.68,1.89,3.37,10.15-2.22.74-3.37-10.15-6.2,2.06,3.72,11.18Z"/><path class="cls-1" d="M273.66,131.45a12.09,12.09,0,0,1-6.62-.53,7.26,7.26,0,0,1-4.6-5.92l-1.38-7.69,19.24-3.45,1.39,7.8A7.47,7.47,0,0,1,280.2,128,10.57,10.57,0,0,1,273.66,131.45Zm-.42-2.69a8.46,8.46,0,0,0,5-2.46,5.19,5.19,0,0,0,1.13-4.59l-.87-4.85-14.79,2.65.91,5a4.88,4.88,0,0,0,2.73,3.74A9.41,9.41,0,0,0,273.24,128.76Z"/><path class="cls-1" d="M269.66,158.82a5.32,5.32,0,0,1-4.13-2,7,7,0,0,1-1.41-4.87l.31-8.41,19.53.74-.32,8.59a5.82,5.82,0,0,1-1.51,4,4.62,4.62,0,0,1-3.65,1.37,4.38,4.38,0,0,1-4-2.76,7.18,7.18,0,0,1-1.55,2.37A4.58,4.58,0,0,1,269.66,158.82Zm.15-2.64c2.18.08,3.32-1.4,3.44-4.44l.19-5.2-6.85-.25-.21,5.62a4.51,4.51,0,0,0,.82,3.1A3.33,3.33,0,0,0,269.81,156.18Zm8.58-.6q2.88.1,3-3.94l.18-4.79-6-.23-.18,4.76Q275.26,155.46,278.39,155.58Z"/><path class="cls-1" d="M279.94,179.3l-10.14-9.37-7.73-1.43.48-2.6,7.73,1.43,12.82-5.13-.55,3L272.29,169l8.22,7.22Z"/><path class="cls-1" d="M270.1,206.61,262,195.43l-7.31-2.91,1-2.45L263,193l13.57-2.52-1.14,2.86L264.6,195l6.65,8.69Z"/><path class="cls-1" d="M250.89,220.4a10.81,10.81,0,0,1-5.25-6.09,9.83,9.83,0,0,1,7-11.94,12,12,0,0,1,12.87,7.53,9.93,9.93,0,0,1-6.21,11.72,9.43,9.43,0,0,1-4.17.26A11.57,11.57,0,0,1,250.89,220.4ZM252.1,218a8.65,8.65,0,0,0,5.93,1.32,6.67,6.67,0,0,0,5-8.52,9.86,9.86,0,0,0-9.95-5.83,6.68,6.68,0,0,0-5,8.53A8.5,8.5,0,0,0,252.1,218Z"/><path class="cls-1" d="M235.77,233.53a7.56,7.56,0,0,1-2.44-3.64,5.91,5.91,0,0,1-.21-3.07,9.84,9.84,0,0,1,2.16-4.1,7.66,7.66,0,0,1,5-2.9,6.74,6.74,0,0,1,5.21,1.77l9.93,8.45-1.71,2-9.37-8a5.72,5.72,0,0,0-3.9-1.61,5.68,5.68,0,0,0-4.84,5.69,5.56,5.56,0,0,0,2.16,3.58l9.41,8-1.71,2Z"/><path class="cls-1" d="M215.53,242.36l2.44-2.13a8,8,0,0,1,.77.59,26.7,26.7,0,0,1,2.59,2.55,11.79,11.79,0,0,0,1.08,1.08,3.08,3.08,0,0,0,1.4.62,3.5,3.5,0,0,0,2.64-1.12l4.82-4.2-5.5-6.32,2-1.73,12.84,14.73-6.81,5.93q-4.84,4.23-8.33.22a5,5,0,0,1-1.37-3.1,7.26,7.26,0,0,1,.38-2.17,3.76,3.76,0,0,1-2.2.17,5,5,0,0,1-2-1.4l-2.45-2.56a3.84,3.84,0,0,0-1-.81,1.81,1.81,0,0,0-1,0Zm11.86,8.29c1.41,1.63,3,1.67,4.77.14l5-4.33-4.36-5-4.62,4Q225.16,248.09,227.39,250.65Z"/><path class="cls-1" d="M203,269.43l9.56-5.2L209.68,259l-8.41,4.58-1.12-2.06,8.41-4.58-4.23-7.79,2.32-1.26L216,265l-11.88,6.46Z"/><path class="cls-1" d="M177.45,260.76l3-1.13c.16.24.33.51.51.83a27.19,27.19,0,0,1,1.51,3.3,10.7,10.7,0,0,0,.63,1.39,3,3,0,0,0,1.1,1.08,3.49,3.49,0,0,0,2.86-.1l6-2.22-2.91-7.86,2.48-.92,6.77,18.33L191,276.59q-6,2.24-7.86-2.75a5,5,0,0,1-.18-3.38,7.23,7.23,0,0,1,1.12-1.9,3.7,3.7,0,0,1-2.11-.63,5,5,0,0,1-1.36-2l-1.38-3.27a3.82,3.82,0,0,0-.64-1.11,1.89,1.89,0,0,0-.95-.38Zm8.14,12c.75,2,2.22,2.63,4.42,1.82l6.17-2.28-2.3-6.23-5.74,2.12Q184.41,269.53,185.59,272.72Z"/><path class="cls-1" d="M169.57,262.33,176,260.8l.55,2.28-1.91.45L178.05,278l1.9-.45.55,2.27-6.38,1.53-.54-2.28,1.9-.45L172,264.15l-1.9.45Z"/><path class="cls-1" d="M152.88,264.88l14.28-2,2.72,19.35-14.09,2-.33-2.32,11.48-1.61-.83-5.93-10.59,1.49-.33-2.32L165.78,272l-.91-6.46-11.66,1.64Z"/><path class="cls-1" d="M134.81,264.5l3,.08,9.51,16.07.46-15.78,2.56.08-.57,19.53-3.14-.09-9.35-16.06-.46,15.77-2.55-.07Z"/><path class="cls-1" d="M113.49,271a12,12,0,0,1,2.79-6,7.22,7.22,0,0,1,7.14-2.27l7.69,1.36-3.42,19.24-7.79-1.38a7.53,7.53,0,0,1-5.46-3.61A10.5,10.5,0,0,1,113.49,271Zm2.67.53a8.46,8.46,0,0,0,.56,5.59,5.16,5.16,0,0,0,3.92,2.64l4.85.87,2.63-14.79-5-.9a4.87,4.87,0,0,0-4.45,1.27A9.4,9.4,0,0,0,116.16,271.48Z"/><path class="cls-1" d="M97,260.26a5.13,5.13,0,0,1,3.42-3.36,9.38,9.38,0,0,1,5.94.53c2.52.92,4.18,2.31,5,4.16a5.64,5.64,0,0,1,.45,1.64,7.47,7.47,0,0,1-.5,3.27l-2.33-.85q1.36-4.38-3.61-6.2-4.68-1.71-5.87,1.54a2.63,2.63,0,0,0,0,1.93,7.64,7.64,0,0,0,2.82,2.59l3.44,2.25c2.39,1.54,3.15,3.49,2.3,5.82a5.44,5.44,0,0,1-3.26,3.46,7.74,7.74,0,0,1-5.38-.28c-3.15-1.15-4.86-2.93-5.11-5.34a8.33,8.33,0,0,1,.38-3l2.32.85q-1,3.86,3.26,5.42a5.17,5.17,0,0,0,3.34.27A3,3,0,0,0,105.5,273c.46-1.26,0-2.32-1.31-3.17l-4.8-3.12Q95.58,264.25,97,260.26Z"/><path class="cls-1" d="M76.21,242.29l2.45,1.52-1.35,5.85L84,253.79,88.7,250,91,251.46,74.48,264.21l-2.55-1.58Zm.67,9.87L74.81,261l0,0L82,255.35Z"/><path class="cls-1" d="M54.8,246.73l5.13,4.17,10.85-13.35,2,1.66L62,252.56l5.14,4.17-1.48,1.82-12.31-10Z"/><path class="cls-1" d="M43.19,218l.78-.37a9.62,9.62,0,0,1,4.5-1A8.19,8.19,0,0,1,54.52,220a8,8,0,0,1,1.75,6.76,11.17,11.17,0,0,1-4.44,6.48,10.93,10.93,0,0,1-7.46,2.67,8.49,8.49,0,0,1-6.3-3.54,8.35,8.35,0,0,1-2-5.28,7.45,7.45,0,0,1,2.13-5l1.57,2a5.8,5.8,0,0,0-1.21,2.6,5.55,5.55,0,0,0,1.34,4.17,5.77,5.77,0,0,0,4.6,2.42,9.23,9.23,0,0,0,5.68-2.25,9.19,9.19,0,0,0,3.59-4.89,5.6,5.6,0,0,0-1.25-4.94,5.18,5.18,0,0,0-4.38-2.18,9.51,9.51,0,0,0-3.38.94Z"/><path class="cls-1" d="M40.08,198.2l1.41,2.51-4,4.48L41.34,212l6-1,1.34,2.37L28,216.57,26.54,214Zm-4.16,9-6.07,6.74,0,.05,9-1.5Z"/><path class="cls-1" d="M32.91,178.89l.87,2.41-10.85,3.9-.48.17-.67.24-3.14,1.13-.28.1,17.27-.36.89,2.46L23,199.64l.31,0L27.51,198l10.86-3.9.87,2.41-18.39,6.6-1.28-3.56,13.66-10.83,0,0L15.79,189l-1.27-3.53Z"/><path class="cls-1" d="M23.82,161.56a5.34,5.34,0,0,1,4.46,1.06,7,7,0,0,1,2.41,4.46l1.49,8.27L13,178.8l-1.52-8.46a5.72,5.72,0,0,1,.63-4.19A4.58,4.58,0,0,1,15.33,164a4.37,4.37,0,0,1,4.45,1.85,7,7,0,0,1,1-2.64A4.56,4.56,0,0,1,23.82,161.56Zm-7.84,5q-2.84.51-2.12,4.5l.85,4.72,5.91-1.07-.84-4.68C19.3,167.38,18,166.22,16,166.59Zm8.25-2.42q-3.21.59-2.41,5.08l.92,5.11,6.75-1.21-1-5.54A4.56,4.56,0,0,0,27,164.76,3.36,3.36,0,0,0,24.23,164.17Z"/><path class="cls-1" d="M28.82,141.47l.11,3.24a7.51,7.51,0,0,1-.95.22,25.67,25.67,0,0,1-3.6.4,11.92,11.92,0,0,0-1.52.16,3,3,0,0,0-1.37.7,3.46,3.46,0,0,0-.8,2.75l.22,6.39,8.38-.28.09,2.63-19.53.67-.31-9c-.15-4.27,1.55-6.48,5.08-6.6a5,5,0,0,1,3.27.9,7.4,7.4,0,0,1,1.45,1.66,3.73,3.73,0,0,1,1.26-1.81,5,5,0,0,1,2.33-.65l3.53-.29a3.6,3.6,0,0,0,1.26-.26,1.78,1.78,0,0,0,.66-.78Zm-13.92,4q-3.22.1-3.11,3.62l.22,6.58,6.64-.23-.21-6.12Q18.31,145.32,14.9,145.44Z"/><path class="cls-1" d="M29.88,133.5,29.32,140l-2.34-.2.17-2-14.8-1.27-.17,1.95-2.33-.2.56-6.54,2.33.2-.17,2,14.81,1.27.17-1.95Z"/><path class="cls-1" d="M23.61,113.25a12,12,0,0,1,5.94,3,7.25,7.25,0,0,1,2,7.22L30,131.08l-19.12-4,1.63-7.75A7.45,7.45,0,0,1,16.27,114,10.48,10.48,0,0,1,23.61,113.25ZM23,115.9a8.55,8.55,0,0,0-5.6.38,5.22,5.22,0,0,0-2.77,3.84l-1,4.82L28.32,128l1.05-5a4.91,4.91,0,0,0-1.12-4.5A9.45,9.45,0,0,0,23,115.9Z"/><path class="cls-1" d="M40.33,96.73l-.64,1.59L37.11,98a8.41,8.41,0,0,1,1,2.71,8.64,8.64,0,0,1-.59,4.54,8.14,8.14,0,0,1-4.78,4.86,10.47,10.47,0,0,1-7.83-.28,11.24,11.24,0,0,1-6.16-5.19,8.36,8.36,0,0,1-.23-7.27,9.85,9.85,0,0,1,2-3.17,7.48,7.48,0,0,1,3.13-2,6.78,6.78,0,0,1,1.6-.33,7.75,7.75,0,0,1,2.32.2l-.95,2.37a6.25,6.25,0,0,0-2.92.36,6.55,6.55,0,0,0-2.76,8.67,9.14,9.14,0,0,0,4.86,3.83,9,9,0,0,0,6.05.6,6,6,0,0,0,3.67-3.73,6.17,6.17,0,0,0,.15-4.65,5.22,5.22,0,0,0-1.3-1.94A8.87,8.87,0,0,0,31.8,96l-2.25,5.66-2.1-.83,3.17-8Z"/><path class="cls-1" d="M49.28,81,42,93.47,25.13,83.59l7.19-12.28,2,1.18-5.86,10,5.17,3,5.4-9.23,2,1.19-5.4,9.23L41.3,90l6-10.17Z"/><path class="cls-1" d="M61.21,55.55c.12.17.29.4.5.71a9.51,9.51,0,0,1,1.83,4.23,8.19,8.19,0,0,1-2.29,6.57A8,8,0,0,1,54.91,70a11.12,11.12,0,0,1-7.17-3.21,11,11,0,0,1-4-6.86,8.5,8.5,0,0,1,2.37-6.83A8.37,8.37,0,0,1,51,50.17a7.47,7.47,0,0,1,5.27,1.21l-1.7,1.9a5.87,5.87,0,0,0-2.78-.73,5.56,5.56,0,0,0-3.86,2.07,5.73,5.73,0,0,0-1.56,5,9.11,9.11,0,0,0,3.23,5.19A9.09,9.09,0,0,0,55,67.42a5.61,5.61,0,0,0,4.65-2.11A5.17,5.17,0,0,0,61,60.61a9.22,9.22,0,0,0-1.52-3.15Z"/><path class="cls-1" d="M76.74,39.69a10.8,10.8,0,0,1,2.67,7.58,9.85,9.85,0,0,1-10.85,8.58,10.55,10.55,0,0,1-6.67-4.24,10.55,10.55,0,0,1-2.57-7.47,9.94,9.94,0,0,1,10.05-8.66,9.64,9.64,0,0,1,4,1.29A11.44,11.44,0,0,1,76.74,39.69Zm-2,1.83a8.56,8.56,0,0,0-5-3.38,6.67,6.67,0,0,0-7.77,6.1A8.63,8.63,0,0,0,64,49.93a8.6,8.6,0,0,0,5,3.37,6.69,6.69,0,0,0,7.76-6.12A8.53,8.53,0,0,0,74.72,41.52Z"/><path class="cls-1" d="M98.37,39.18l-2.54,1.38-4.41-4.08-6.89,3.75.93,6-2.39,1.3L80.19,26.82l2.63-1.43Zm-8.9-4.3L82.82,28.7l0,0,1.35,9.05Z"/><path class="cls-1" d="M112.36,26.27c0,.2.07.48.11.85a9.4,9.4,0,0,1-.36,4.6A8.11,8.11,0,0,1,107,36.45a8,8,0,0,1-7-.38,11.11,11.11,0,0,1-4.83-6.19A10.92,10.92,0,0,1,94.93,22,8.47,8.47,0,0,1,100.21,17a8.39,8.39,0,0,1,5.63-.31,7.46,7.46,0,0,1,4.09,3.54l-2.4.88a5.74,5.74,0,0,0-2.11-1.94,5.56,5.56,0,0,0-4.37,0,5.73,5.73,0,0,0-3.7,3.65A9.1,9.1,0,0,0,97.77,29a9.2,9.2,0,0,0,3.57,4.91,5.65,5.65,0,0,0,5.09.3,5.16,5.16,0,0,0,3.4-3.52,9.34,9.34,0,0,0,.13-3.5Z"/><path class="cls-1" d="M132.59,29.41,130,29.9l-1.7-9-10,1.9,1.7,9-2.59.49-3.64-19.2,2.59-.49,1.51,7.94,10-1.9-1.5-7.94,2.59-.49Z"/><path class="cls-1" d="M141.46,28.7l-6.53.6L134.72,27l1.95-.18L135.31,12l-1.95.18-.21-2.34,6.53-.6.21,2.34-1.95.18,1.36,14.79,1.95-.18Z"/><path class="cls-1" d="M159.3,28.89l-3-.08-9.52-16.07-.45,15.78-2.56-.08.57-19.53,3.14.09,9.35,16.07.45-15.78,2.56.07Z"/><path class="cls-1" d="M179.66,32.69,178,32.35l-.11-2.6a7.95,7.95,0,0,1-7.06,1.67,8.12,8.12,0,0,1-5.63-3.84,10.4,10.4,0,0,1-1.12-7.75,11.26,11.26,0,0,1,4-7,8.43,8.43,0,0,1,7.12-1.52,9.68,9.68,0,0,1,3.48,1.43,7.41,7.41,0,0,1,2.56,2.71,6.72,6.72,0,0,1,.61,1.51,8,8,0,0,1,.22,2.33l-2.51-.51a6.1,6.1,0,0,0-.87-2.82,6.56,6.56,0,0,0-9-1.17,9.17,9.17,0,0,0-2.9,5.47,8.83,8.83,0,0,0,.49,6.05,5.92,5.92,0,0,0,4.31,2.95,6.14,6.14,0,0,0,4.61-.68A5.14,5.14,0,0,0,177.84,27a8.75,8.75,0,0,0,1-2.79l-6-1.21.45-2.21,8.4,1.7Z"/><path class="cls-1" d="M185.47,34.86,183,34l.89-2.63,2.5.84Zm4.19-12.4-3.32,7.79-1.26-.43,2.08-8.2,2.06-6.11,2.5.84Z"/><circle class="cls-3" cx="146.68" cy="71.5" r="15.29"/><line class="cls-3" x1="146.68" y1="88.55" x2="146.68" y2="97.91"/><line class="cls-3" x1="130.04" y1="71.91" x2="120.68" y2="71.91"/><line class="cls-3" x1="134.84" y1="60.06" x2="128.38" y2="53.6"/><line class="cls-3" x1="158.53" y1="60.06" x2="164.99" y2="53.6"/><line class="cls-3" x1="162.03" y1="65.24" x2="170.6" y2="61.91"/><line class="cls-3" x1="162.03" y1="78.58" x2="170.6" y2="81.9"/><line class="cls-3" x1="153.35" y1="87.25" x2="156.68" y2="95.82"/><line class="cls-3" x1="140.02" y1="87.25" x2="136.69" y2="95.82"/><line class="cls-3" x1="146.68" y1="45.91" x2="146.68" y2="55.26"/><line class="cls-3" x1="172.68" y1="71.91" x2="163.33" y2="71.91"/><line class="cls-3" x1="164.99" y1="90.21" x2="158.53" y2="83.76"/><line class="cls-3" x1="128.38" y1="90.21" x2="134.84" y2="83.76"/><line class="cls-3" x1="122.77" y1="81.9" x2="131.34" y2="78.58"/><line class="cls-3" x1="122.77" y1="61.91" x2="131.34" y2="65.24"/><line class="cls-3" x1="136.69" y1="48" x2="140.02" y2="56.56"/><line class="cls-3" x1="156.68" y1="48" x2="153.35" y2="56.56"/><path class="cls-3" d="M80.89,203.91a8,8,0,0,0,16,0"/><path class="cls-3" d="M97.39,203.91a8,8,0,0,0,16,0"/><path class="cls-3" d="M147.26,203.91a8,8,0,0,0,16,0"/><path class="cls-3" d="M163.76,203.91a8,8,0,0,0,16,0"/><path class="cls-3" d="M149.47,217.91a8,8,0,0,0,16,0"/><path class="cls-3" d="M166,217.91a8,8,0,0,0,16,0"/><path class="cls-3" d="M132.23,231.91a8,8,0,0,0,16,0"/><path class="cls-3" d="M148.73,231.91a8,8,0,0,0,16,0"/><path class="cls-3" d="M113.61,203.91a8,8,0,0,0,16,0"/><path class="cls-3" d="M130.11,203.91a8,8,0,0,0,16,0"/><path class="cls-3" d="M115.82,217.91a8,8,0,1,0,16,0"/><path class="cls-3" d="M132.32,217.91a8,8,0,1,0,16,0"/><path class="cls-3" d="M180,203.91a8,8,0,0,0,16,0"/><path class="cls-3" d="M196.48,203.91a8,8,0,0,0,16,0"/><path class="cls-3" d="M181.75,217.91a8,8,0,0,0,16,0"/><path class="cls-3" d="M98.64,217.91a8,8,0,0,0,16,0"/></g></g></svg>