<svg xmlns="http://www.w3.org/2000/svg" xmlns:xlink="http://www.w3.org/1999/xlink" viewBox="0 0 179.65 147.81"><defs><style>.cls-1,.cls-3{fill:none;}.cls-2{clip-path:url(#clip-path);}.cls-3{stroke:#231f20;stroke-miterlimit:10;stroke-width:3px;}</style><clipPath id="clip-path" transform="translate(0)"><rect class="cls-1" width="179.65" height="147.81"/></clipPath></defs><title>Asset 12</title><g id="Layer_2" data-name="Layer 2"><g id="Layer_1-2" data-name="Layer 1"><g class="cls-2"><path class="cls-3" d="M22.18,23.23h-19A1.69,1.69,0,0,0,1.5,24.92V139.8a.84.84,0,0,0,1.28.72,76.85,76.85,0,0,1,39.39-10.9c31.78,0,47.52,16.19,47.52,16.19m0-8.95V28S75.49,1.78,23,1.5a.86.86,0,0,0-.86.85v109a.84.84,0,0,0,.84.83c41.43.35,60.67,26.36,66.24,33.8C89.94,146.91,89.69,138,89.69,136.86ZM157.47,23.48h19a1.69,1.69,0,0,1,1.69,1.69V140.05a.84.84,0,0,1-1.28.72,76.85,76.85,0,0,0-39.39-10.9C105.7,129.87,90,146.06,90,146.06m0-8.95V28.25S104.16,2,156.61,1.75a.86.86,0,0,1,.86.85v109a.84.84,0,0,1-.84.83c-41.43.35-60.67,26.36-66.24,33.8C89.71,147.15,90,138.24,90,137.11Z" transform="translate(0)"/></g></g></g></svg>